Coordinates
version=1
nRows=14
nColumns=24
inDegrees=yes

Units are S.I. units (second, meters, Newtons, ...)
Angles are in degrees.

endheader
time	pelvis_tilt	pelvis_list	pelvis_rotation	pelvis_tx	pelvis_ty	pelvis_tz	hip_flexion_r	hip_adduction_r	hip_rotation_r	knee_angle_r	ankle_angle_r	subtalar_angle_r	mtp_angle_r	hip_flexion_l	hip_adduction_l	hip_rotation_l	knee_angle_l	ankle_angle_l	subtalar_angle_l	mtp_angle_l	lumbar_extension	lumbar_bending	lumbar_rotation
      4.29000000	     -5.13020399	     -7.17544932	     -2.80976606	      0.63952060	      0.66618252	     -0.15249657	     -1.18391164	     11.73271121	     13.76906264	     13.95520088	      1.48723566	     -7.34851887	      0.00000000	     27.44189822	     -5.64817833	      3.02741563	    -68.66535736	     -1.23644694	    -16.30640864	      0.00000000	    -13.36015796	      5.61809446	      3.82914586
      4.30000000	     -5.49848743	     -7.04329887	     -5.78856592	      0.65369692	      0.66648094	     -0.15005025	     -2.23141345	     11.70366385	     16.34500638	     13.49856758	      2.74364559	     -7.01259865	      0.00000000	     29.85259124	     -6.31020149	      2.35922023	    -67.28934874	      0.02513708	    -17.29496090	      0.00000000	    -13.56942531	      4.93635155	      6.60309445
      4.31000000	     -5.85205274	     -6.74874802	     -8.72812137	      0.66795636	      0.66651104	     -0.14794257	     -3.27447104	     11.30757194	     19.68208298	     13.09409978	      3.48384435	     -7.98112265	      0.00000000	     31.97065298	     -6.97489897	      1.69437211	    -65.19007133	      0.63470944	    -19.21867591	      0.00000000	    -13.70510277	      4.16489903	      9.04315855
      4.32000000	     -6.16363989	     -6.47785122	    -11.42804794	      0.68242154	      0.66638775	     -0.14618240	     -4.25895946	     10.88991748	     22.42571382	     12.52192875	      4.58794422	     -8.39660051	      0.00000000	     33.78693603	     -7.77897883	      1.16519159	    -62.41345998	      1.04129851	    -21.12873145	      0.00000000	    -13.79867587	      3.51800462	     11.09925752
      4.33000000	     -6.48451182	     -6.18126350	    -13.69810938	      0.69725704	      0.66602686	     -0.14494418	     -5.27919067	     10.29539855	     24.86193975	     12.14393692	      5.65321297	     -8.77272885	      0.00000000	     35.33615629	     -8.49608720	      0.90025480	    -58.89222152	      1.09956541	    -23.18136395	      0.00000000	    -13.72027214	      3.00192194	     12.58752001
      4.34000000	     -6.79983441	     -5.83989764	    -15.50454842	      0.71254774	      0.66549554	     -0.14417475	     -6.33501614	      9.54251558	     26.75632877	     11.94015795	      6.73979621	     -8.91126592	      0.00000000	     36.55380412	     -9.06963719	      0.80841979	    -54.55504767	      0.92350185	    -25.07498716	      0.00000000	    -13.46800898	      2.59343744	     13.55596347
      4.35000000	     -7.11788181	     -5.45346261	    -16.94370686	      0.72829669	      0.66482103	     -0.14368887	     -7.38641514	      8.70203834	     27.96023450	     11.82042053	      7.83094612	     -8.59610187	      0.00000000	     37.37921020	     -9.55488578	      0.68255308	    -49.35090029	      0.62868405	    -26.59797893	      0.00000000	    -13.02471463	      2.25619056	     14.19521117
      4.36000000	     -7.41063422	     -5.11950108	    -18.09201597	      0.74449735	      0.66399243	     -0.14333607	     -8.49054076	      7.89914492	     28.63410104	     11.73926246	      9.00704842	     -7.95833079	      0.00000000	     37.72501162	    -10.05222725	      0.43300393	    -43.29528829	      0.18190893	    -27.62963922	      0.00000000	    -12.45220601	      2.05582151	     14.58718515
      4.37000000	     -7.63336821	     -4.88967464	    -19.11627235	      0.76110727	      0.66304286	     -0.14294026	     -9.67540256	      7.22132522	     28.83224589	     11.57583320	     10.16619995	     -7.10006274	      0.00000000	     37.48434496	    -10.66467846	     -0.15025951	    -36.45095411	     -0.23358896	    -27.78872138	      0.00000000	    -11.84985936	      1.99677689	     15.06360393
      4.38000000	     -7.82446168	     -4.83566213	    -20.18202109	      0.77811713	      0.66186743	     -0.14236920	    -10.95315266	      6.70678437	     28.98371357	     11.35717115	     11.16977615	     -6.30215209	      0.00000000	     36.69862612	    -11.48683648	     -1.12846229	    -29.03700552	     -0.46263679	    -26.82150375	      0.00000000	    -11.21842603	      2.13974134	     15.75682897
      4.39000000	     -7.83624556	     -5.17718776	    -21.31981775	      0.79552539	      0.66067092	     -0.14155006	    -12.42848119	      6.66195142	     28.38447523	     10.72800356	     12.38316049	     -4.73017911	      0.00000000	     35.31571509	    -12.67895395	     -2.72155822	    -21.48804937	     -0.26114418	    -24.07348128	      0.00000000	    -10.87303787	      2.63972516	     16.67273992
      4.40000000	     -7.66411926	     -5.77850085	    -22.58523874	      0.81333136	      0.65936748	     -0.14060538	    -14.19487569	      6.70536419	     28.18382042	     10.03887447	     13.25498949	     -3.77163540	      0.00000000	     33.47946922	    -13.99878229	     -4.74754042	    -14.24574967	      0.15329863	    -20.12522574	      0.00000000	    -10.81144846	      3.34320425	     17.81825986
      4.41000000	     -7.39194239	     -6.59313658	    -23.90180694	      0.83150605	      0.65800645	     -0.13962276	    -16.06635781	      6.88260666	     27.90344244	      9.08440686	     14.00825878	     -2.81468746	      0.00000000	     31.51852594	    -15.36740166	     -7.15972949	     -7.95069301	      0.85744183	    -15.12139896	      0.00000000	    -10.95058916	      4.22516130	     19.06104627
      4.42000000	     -7.05705660	     -7.43064899	    -25.15438350	      0.84998067	      0.65669253	     -0.13874992	    -17.89742085	      7.01877265	     27.46024102	      7.86102589	     14.53003219	     -1.79068159	      0.00000000	     29.65909960	    -16.54563575	     -9.53986450	     -2.97409332	      1.50666792	    -10.25010349	      0.00000000	    -11.19039668	      5.09915381	     20.22194861
